<svg preserveAspectRatio="none" overflow="visible" style="display: block;" width="24" height="24" viewBox="0 0 24 24" fill="none" xmlns="http://www.w3.org/2000/svg">
<g id="Icon">
<path id="Vector" d="M7 4C9.7625 4 12 6.30414 12 9.14658C12 6.30414 14.2375 4 17 4C19.7625 4 22 6.30414 22 9.14658C22 13.4306 17.9575 14.9417 12.49 21.7609C12.4298 21.8358 12.3548 21.896 12.2701 21.9373C12.1855 21.9786 12.0933 22 12 22C11.9067 22 11.8145 21.9786 11.7299 21.9373C11.6452 21.896 11.5702 21.8358 11.51 21.7609C6.0425 14.9417 2 13.4306 2 9.14658C2 6.30414 4.2375 4 7 4Z" fill="black" stroke="black" stroke-width="2" stroke-linejoin="round"/>
</g>
</svg>
